<?xml version="1.0" encoding="utf-8"?>
<!-- Generator: Adobe Illustrator 24.1.2, SVG Export Plug-In . SVG Version: 6.00 Build 0)  -->
<svg version="1.1" id="Objects" xmlns="http://www.w3.org/2000/svg" xmlns:xlink="http://www.w3.org/1999/xlink" x="0px" y="0px"
	 viewBox="0 0 800 281.09" style="enable-background:new 0 0 800 281.09;" xml:space="preserve">
<style type="text/css">
	.st0{fill:#B2B2B2;}
	.st1{fill:#808080;}
	.st2{fill:#4D4D4D;}
	.st3{fill:#000000;}
</style>
<g>
	<polygon class="st0" points="734.14,191.37 734.14,115.72 715.73,115.72 715.73,51.3 669.7,51.3 669.7,191.37 649.12,191.37
		649.12,115.72 612.84,115.72 612.84,83.51 589.82,83.51 589.82,92.71 580.08,92.71 580.08,96.74 568.57,96.74 568.57,103.64
		562.07,103.64 562.07,191.37 554.76,191.37 554.76,83.51 520.78,83.51 520.78,191.37 515.77,191.37 515.77,133.55 472.04,133.55
		472.04,191.37 469.74,191.37 469.74,39.79 426.01,39.79 426.01,191.37 413.96,191.37 413.96,78.62 370.23,52.16 370.23,126.08
		358.18,126.08 358.18,109.97 329.62,109.97 329.62,191.37 271.74,191.37 271.74,65.39 226.18,65.39 226.18,191.37 176.97,191.37
		176.97,20.23 131.41,20.23 131.41,112.27 116.83,112.27 116.83,90.41 71.27,90.41 71.27,133.55 56.65,133.55 56.65,191.37
		43.72,191.37 43.72,83.51 0,83.51 0,281.09 800,281.09 800,191.37 	"/>
	<path class="st1" d="M776.89,117.94v105.15h-4.31v-71.13h-23.64v71.13h-38.09V110.56h-28.37v112.53h-5.99V87.49
		c0-7.59-5.89-13.78-13.32-14.23l-0.86-36.03l-0.86,36.03c-7.43,0.45-13.32,6.64-13.32,14.23v135.6h-36.92V121.78h-28.37v101.31
		h-23.17v-79.63h-32.38v79.63h-18.29V84.56h-12.25l-1.04-43.33l-1.04,43.33h-16.3v27.86h-20.19l-10-17.44l-10,17.44h-2.02V95.99
		h-28.54v127.1h-5.53v-57.06h-13.1v-17.29h-21.84v-12.01h-23.3v19.93h-10.48V57.6h-7.54c-2.35-6.01-7.95-10.37-14.63-10.89L310.05,0
		l-1.12,46.69c-6.87,0.36-12.67,4.77-15.07,10.91h-5.96v165.49h-5.53v-101.9h-27.08v101.9h-8.73v-101.9h-19.12l-18.77-32.71
		l-18.77,32.71h-18.47v101.9h-4.37v-52.14h-29.7v52.14h-6.41v-41.24H116.1v41.24h-13.4v-70.01H80.28v70.01h-1.46V177.1H63.97v-6.15
		H49.12v52.14h-4.37v-78.45H23.79v-23.44H8.66l-1.21-50.6l-1.21,50.6H0v159.9h800V117.94H776.89z"/>
	<polygon class="st2" points="755.44,138.9 755.44,177.58 741.15,177.58 741.15,246.92 713.56,246.92 713.56,204.38 686.87,204.38
		686.87,222.13 678.35,222.13 678.35,264.76 645.1,264.76 645.1,198.02 599.12,198.02 599.12,182.27 548.24,182.27 548.24,202.37
		507.03,202.37 507.03,264.76 462.88,264.76 462.88,195.34 432.43,195.34 432.43,264.76 416.22,264.76 416.22,167.2 403.27,167.2
		403.27,139.4 372.83,139.4 372.83,264.76 360.57,264.76 360.57,173.23 312.88,173.23 312.88,264.76 302.66,264.76 302.66,185.96
		254.98,185.96 254.98,264.76 227.39,264.76 227.39,181.6 174.94,181.6 174.94,196.68 125.89,196.68 125.89,264.76 86.38,264.76
		86.38,202.7 33.93,202.7 33.93,264.76 27.79,264.76 27.79,179.26 0,179.26 0,281.09 800,281.09 800,138.9 	"/>
	<polygon class="st3" points="769.87,218.63 769.87,259.72 751.57,259.72 751.57,238.36 709.87,238.36 709.87,253.48 668.16,253.48
		668.16,267.28 635.03,267.28 635.03,221.59 605.68,221.59 605.68,249.86 591.01,249.86 591.01,267.28 582.6,267.28 582.6,236.06
		530.18,236.06 530.18,267.82 503.3,267.82 503.3,236.06 481.82,236.06 481.82,267.28 471.82,267.28 471.82,255.85 450.33,255.85
		450.33,267.28 437.79,267.28 437.79,236.06 398.05,236.06 398.05,267.28 391.71,267.28 391.71,236.06 370.23,236.06 370.23,267.28
		365.42,267.28 365.42,194.95 343.94,194.95 343.94,267.82 318.35,267.82 318.35,218.63 287.68,218.63 287.68,230.62 257.02,230.62
		257.02,248.08 237.73,248.08 237.73,221.59 204.85,221.59 204.85,215.07 152.84,215.07 152.84,221.59 115.09,221.59 115.09,238.36
		100.42,238.36 100.42,228.48 76.62,228.48 76.62,218.63 0,218.63 0,281.09 800,281.09 800,218.63 	"/>
</g>
</svg>
