<?xml version="1.0" encoding="utf-8"?>
<!-- Generator: Adobe Illustrator 24.1.2, SVG Export Plug-In . SVG Version: 6.00 Build 0)  -->
<svg version="1.1" id="Capa_1" xmlns="http://www.w3.org/2000/svg" xmlns:xlink="http://www.w3.org/1999/xlink" x="0px" y="0px"
	 viewBox="0 0 500 500" style="enable-background:new 0 0 500 500;" xml:space="preserve">
<style type="text/css">
	.st0{fill:#00AEF7;}
	.st1{fill:#FFFFFF;}
	.st2{fill:#3283C5;}
	.st3{fill:#57F676;}
	.st4{fill-rule:evenodd;clip-rule:evenodd;fill:#FFFFFF;}
	.st5{fill:#C3271A;}
	.st6{fill:#29A9E1;}
	.st7{fill:#DF4B38;}
	.st8{fill:#117BB8;}
	.st9{fill:#1EC85A;}
	.st10{fill:#3E5C9A;}
	.st11{fill:url(#XMLID_2_);}
	.st12{fill:#CD2129;}
	.st13{fill:#0057FF;}
	.st14{fill:#36465D;}
	.st15{fill:#FAF807;}
	.st16{fill-rule:evenodd;clip-rule:evenodd;fill:#FFFFFF;stroke:#222221;stroke-miterlimit:10;}
	.st17{fill:#1EB8EB;}
	.st18{fill:#EB4C89;}
</style>
<g id="XMLID_646_">
	<path id="XMLID_651_" class="st0" d="M302.76,355.09L302.76,355.09c-19.81,0-35.86-16.06-35.86-35.86v0
		c0-19.81,16.06-35.86,35.86-35.86h0c19.81,0,35.86,16.06,35.86,35.86v0C338.62,339.03,322.56,355.09,302.76,355.09z"/>
	<path id="XMLID_647_" class="st1" d="M282.76,319.24c0,11.03,8.94,19.98,19.98,19.98c1.28,0,2.53-0.12,3.74-0.36
		c1.76,1.06,3.82,1.67,6.02,1.67c6.44,0,11.66-5.22,11.66-11.66c0-2.26-0.64-4.36-1.75-6.15c0.2-1.13,0.31-2.3,0.31-3.48
		c0-11.03-8.94-19.98-19.98-19.98c-1.26,0-2.48,0.12-3.68,0.34c-1.76-1.07-3.84-1.69-6.05-1.69c-6.44,0-11.66,5.22-11.66,11.66
		c0,2.24,0.64,4.34,1.74,6.12C282.88,316.84,282.76,318.03,282.76,319.24z M302.95,305.04c6.44,0.38,10.22,3.21,10.58,5.86
		c0.18,1.73-0.97,3.07-2.97,3.07c-2.91,0-3.21-3.88-8.23-3.88c-2.26,0-4.17,0.94-4.17,2.98c0,4.27,16.08,1.79,16.08,11.18
		c0,5.41-4.33,8.96-10.8,8.96c-5.69,0-11.41-2.58-11.38-7.02c0.01-1.34,1.01-2.57,2.34-2.57c3.35,0,3.32,4.98,8.65,4.98
		c3.74,0,5.02-2.04,5.02-3.46c0-5.14-16.17-1.99-16.17-11.65C291.9,308.26,296.2,304.65,302.95,305.04z"/>
</g>
<g id="XMLID_634_">
	<path id="XMLID_643_" class="st2" d="M302.76,456.71L302.76,456.71c-19.81,0-35.86-16.06-35.86-35.86v0
		c0-19.81,16.06-35.86,35.86-35.86h0c19.81,0,35.86,16.06,35.86,35.86v0C338.62,440.65,322.56,456.71,302.76,456.71z"/>
	<g id="XMLID_635_" transform="translate(-1)">
		<path id="XMLID_641_" class="st1" d="M281.73,409.2l11.02,7.02l11.02-7.02l-11.02-7.02L281.73,409.2z"/>
		<path id="XMLID_639_" class="st1" d="M303.75,409.2l11.02,7.02l11.02-7.02l-11.02-7.02L303.75,409.2z"/>
		<path id="XMLID_638_" class="st1" d="M281.73,423.14l11.02,7.02l11.02-7.02l-11.02-7.02L281.73,423.14z"/>
		<path id="XMLID_637_" class="st1" d="M314.76,416.12l-11.02,7.02l11.02,7.02l11.02-7.02L314.76,416.12z"/>
		<path id="XMLID_636_" class="st1" d="M292.82,432.49l11.02,7.02l11.02-7.02l-11.02-7.02L292.82,432.49z"/>
	</g>
</g>
<g id="XMLID_110_">
	<path id="XMLID_1108_" class="st3" d="M197.72,355.09L197.72,355.09c-19.81,0-35.86-16.06-35.86-35.86v0
		c0-19.81,16.06-35.86,35.86-35.86l0,0c19.81,0,35.86,16.06,35.86,35.86v0C233.59,339.03,217.53,355.09,197.72,355.09z"/>
	<g id="XMLID_115_">
		<path id="XMLID_118_" class="st4" d="M217.38,318.23c-0.26-10.36-8.8-18.68-19.3-18.68c-10.38,0-18.84,8.13-19.3,18.33
			c-0.01,0.28-0.02,0.56-0.02,0.84c0,3.63,1.01,7.01,2.77,9.9l-3.48,10.28l10.7-3.4c2.77,1.52,5.95,2.39,9.33,2.39
			c10.67,0,19.31-8.58,19.31-19.17C217.39,318.55,217.39,318.39,217.38,318.23z M198.08,334.83c-3.3,0-6.37-0.98-8.93-2.67
			l-6.24,1.99l2.03-5.99c-1.94-2.66-3.09-5.92-3.09-9.45c0-0.52,0.03-1.05,0.08-1.56c0.8-8.16,7.74-14.55,16.16-14.55
			c8.53,0,15.53,6.56,16.19,14.86c0.04,0.42,0.05,0.83,0.05,1.26C214.32,327.61,207.03,334.83,198.08,334.83z"/>
		<path id="XMLID_117_" class="st4" d="M206.93,322.59c-0.48-0.23-2.8-1.37-3.24-1.53c-0.43-0.16-0.75-0.24-1.07,0.24
			c-0.32,0.47-1.23,1.53-1.5,1.84c-0.28,0.32-0.55,0.35-1.03,0.12c-0.47-0.24-2-0.72-3.81-2.33c-1.4-1.24-2.36-2.78-2.63-3.25
			c-0.27-0.47-0.03-0.72,0.21-0.96c0.22-0.22,0.47-0.55,0.71-0.82c0.06-0.08,0.12-0.15,0.17-0.23c0.11-0.17,0.19-0.33,0.3-0.56
			c0.16-0.32,0.08-0.59-0.04-0.82s-1.07-2.55-1.47-3.49c-0.39-0.94-0.79-0.78-1.07-0.78c-0.27,0-0.59-0.04-0.9-0.04
			c-0.32,0-0.83,0.12-1.27,0.59c-0.43,0.47-1.65,1.61-1.65,3.92c0,0.54,0.1,1.08,0.24,1.6c0.48,1.65,1.51,3.02,1.69,3.26
			c0.23,0.31,3.27,5.21,8.08,7.1c4.82,1.87,4.82,1.25,5.69,1.17c0.87-0.07,2.8-1.13,3.19-2.23c0.4-1.09,0.4-2.03,0.28-2.23
			C207.72,322.94,207.4,322.82,206.93,322.59z"/>
	</g>
</g>
<g id="XMLID_94_">
	<path id="XMLID_108_" class="st5" d="M197.72,456.71L197.72,456.71c-19.81,0-35.86-16.06-35.86-35.86v0
		c0-19.81,16.06-35.86,35.86-35.86l0,0c19.81,0,35.86,16.06,35.86,35.86v0C233.59,440.65,217.53,456.71,197.72,456.71z"/>
	<g id="XMLID_95_">
		<path id="XMLID_106_" class="st1" d="M225.23,406.94c-0.66-2.49-2.61-4.44-5.08-5.11c-4.48-1.21-22.43-1.21-22.43-1.21
			s-17.95,0-22.43,1.21c-2.47,0.66-4.42,2.62-5.08,5.11c-1.2,4.51-1.2,13.91-1.2,13.91s0,9.4,1.2,13.91
			c0.66,2.49,2.61,4.44,5.08,5.11c4.48,1.21,22.43,1.21,22.43,1.21s17.95,0,22.43-1.21c2.47-0.66,4.41-2.62,5.08-5.11
			c1.2-4.51,1.2-13.91,1.2-13.91S226.43,411.45,225.23,406.94z"/>
		<polygon id="XMLID_103_" class="st5" points="191.85,429.38 191.85,412.31 206.86,420.85 		"/>
	</g>
</g>
<g id="XMLID_1449_">
	<path id="XMLID_1451_" class="st6" d="M93.33,151.84L93.33,151.84c-19.81,0-35.86-16.06-35.86-35.86l0,0
		c0-19.81,16.06-35.86,35.86-35.86h0c19.81,0,35.86,16.06,35.86,35.86l0,0C129.19,135.78,113.14,151.84,93.33,151.84z"/>
	<path id="XMLID_1450_" class="st1" d="M74.22,127.98c3.47,2.22,7.59,3.52,12.02,3.52c14.56,0,22.78-12.3,22.29-23.32
		c1.53-1.1,2.86-2.49,3.91-4.06c-1.41,0.62-2.92,1.05-4.5,1.23c1.62-0.97,2.86-2.5,3.45-4.34c-1.52,0.9-3.19,1.55-4.98,1.9
		c-1.43-1.52-3.47-2.48-5.72-2.48c-5.06,0-8.78,4.72-7.64,9.63c-6.52-0.33-12.29-3.45-16.16-8.19c-2.05,3.53-1.07,8.14,2.43,10.47
		c-1.29-0.04-2.5-0.39-3.55-0.98c-0.08,3.63,2.52,7.03,6.29,7.79c-1.1,0.3-2.31,0.37-3.54,0.13c1,3.12,3.89,5.38,7.32,5.45
		C82.53,127.32,78.38,128.47,74.22,127.98z"/>
</g>
<g id="XMLID_1442_">
	<path id="XMLID_1446_" class="st7" d="M198.36,151.84L198.36,151.84c-19.81,0-35.86-16.06-35.86-35.86l0,0
		c0-19.81,16.06-35.86,35.86-35.86l0,0c19.81,0,35.86,16.06,35.86,35.86l0,0C234.23,135.78,218.17,151.84,198.36,151.84z"/>
	<g id="XMLID_1443_">
		<path id="XMLID_1445_" class="st1" d="M202.85,115.04h-14.49l0.02,4.15h9.77c-1.16,5.05-4.72,8.15-9.51,8.15
			c-6.28,0-11.37-5.09-11.37-11.37s5.09-11.37,11.37-11.37c2.99,0,5.7,1.15,7.73,3.03l3.21-2.76c-2.81-2.77-6.67-4.48-10.93-4.48
			c-8.61,0-15.58,6.98-15.58,15.58c0,8.61,6.98,15.58,15.58,15.58c8.26,0,14.23-6.3,14.23-14.91L202.85,115.04z"/>
		<polygon id="XMLID_1444_" class="st1" points="223.67,115.21 217.69,115.21 217.69,109.23 213.87,109.23 213.87,115.21 
			207.89,115.21 207.89,119.03 213.87,119.03 213.87,125.01 217.69,125.01 217.69,119.03 223.67,119.03 		"/>
	</g>
</g>
<g id="XMLID_1433_">
	<path id="XMLID_1439_" class="st8" d="M198.36,253.46L198.36,253.46c-19.81,0-35.86-16.06-35.86-35.86l0,0
		c0-19.81,16.06-35.86,35.86-35.86l0,0c19.81,0,35.86,16.06,35.86,35.86l0,0C234.23,237.41,218.17,253.46,198.36,253.46z"/>
	<g id="XMLID_1434_">
		<g id="XMLID_1436_">
			<rect id="XMLID_1438_" x="182.1" y="209.61" class="st1" width="7.42" height="23.98"/>
			<path id="XMLID_1437_" class="st1" d="M185.78,206.47c2.42,0,4.39-1.98,4.39-4.43c0-2.44-1.96-4.42-4.39-4.42
				c-2.42,0-4.39,1.98-4.39,4.42C181.39,204.48,183.35,206.47,185.78,206.47z"/>
		</g>
		<path id="XMLID_1435_" class="st1" d="M201.39,221c0-3.37,1.55-5.38,4.52-5.38c2.73,0,4.04,1.93,4.04,5.38c0,3.45,0,12.59,0,12.59
			h7.39c0,0,0-8.76,0-15.18c0-6.42-3.64-9.53-8.72-9.53c-5.09,0-7.23,3.96-7.23,3.96v-3.23h-7.12v23.98h7.12
			C201.39,233.58,201.39,224.69,201.39,221z"/>
	</g>
</g>
<g id="XMLID_1424_">
	<path id="XMLID_1430_" class="st9" d="M93.33,253.46L93.33,253.46c-19.81,0-35.86-16.06-35.86-35.86l0,0
		c0-19.81,16.06-35.86,35.86-35.86h0c19.81,0,35.86,16.06,35.86,35.86l0,0C129.19,237.41,113.14,253.46,93.33,253.46z"/>
	<path id="XMLID_1425_" class="st1" d="M93.33,196.63c-11.58,0-20.97,9.39-20.97,20.97c0,11.58,9.39,20.97,20.97,20.97
		c11.58,0,20.97-9.39,20.97-20.97C114.3,206.02,104.91,196.63,93.33,196.63z M102.98,226.93c-0.42,0.63-1.15,0.84-1.78,0.42
		c-4.93-3.04-11.11-3.67-18.45-1.99c-0.73,0.21-1.36-0.31-1.57-0.94c-0.21-0.73,0.31-1.36,0.94-1.57
		c7.97-1.78,14.89-1.05,20.34,2.31C103.19,225.46,103.29,226.3,102.98,226.93z M105.49,221.16c-0.52,0.73-1.47,1.05-2.2,0.52
		c-5.66-3.46-14.26-4.51-20.86-2.41c-0.84,0.21-1.78-0.21-1.99-1.05c-0.21-0.84,0.21-1.78,1.05-1.99
		c7.65-2.31,17.09-1.15,23.59,2.83C105.7,219.38,106.02,220.43,105.49,221.16z M105.7,215.29c-6.71-3.98-17.93-4.4-24.32-2.41
		c-1.05,0.31-2.1-0.31-2.41-1.26c-0.31-1.05,0.31-2.1,1.26-2.41c7.44-2.2,19.71-1.78,27.47,2.83c0.94,0.52,1.26,1.78,0.73,2.73
		C107.9,215.5,106.64,215.82,105.7,215.29z"/>
</g>
<g id="XMLID_1419_">
	<path id="XMLID_1421_" class="st10" d="M302.21,151.84L302.21,151.84c-19.81,0-35.86-16.06-35.86-35.86l0,0
		c0-19.81,16.06-35.86,35.86-35.86l0,0c19.81,0,35.86,16.06,35.86,35.86l0,0C338.07,135.78,322.02,151.84,302.21,151.84z"/>
	<path id="XMLID_1420_" class="st1" d="M296.74,137.66h8.73v-21.86h6.09l0.65-7.32h-6.74c0,0,0-2.73,0-4.17
		c0-1.73,0.35-2.41,2.02-2.41c1.34,0,4.72,0,4.72,0v-7.6c0,0-4.98,0-6.05,0c-6.5,0-9.43,2.86-9.43,8.34c0,4.77,0,5.84,0,5.84h-4.54
		v7.41h4.54V137.66z"/>
</g>
<g id="XMLID_1346_">
	<radialGradient id="XMLID_2_" cx="369.5832" cy="152.0792" r="132.6155" gradientUnits="userSpaceOnUse">
		<stop  offset="0" style="stop-color:#F5EC53"/>
		<stop  offset="0.2412" style="stop-color:#E48244"/>
		<stop  offset="0.3974" style="stop-color:#D15767"/>
		<stop  offset="0.4888" style="stop-color:#C84278"/>
		<stop  offset="1" style="stop-color:#192CFA"/>
	</radialGradient>
	<path id="XMLID_1418_" class="st11" d="M407.24,151.84L407.24,151.84c-19.81,0-35.86-16.06-35.86-35.86l0,0
		c0-19.81,16.06-35.86,35.86-35.86h0c19.81,0,35.86,16.06,35.86,35.86l0,0C443.1,135.78,427.05,151.84,407.24,151.84z"/>
	<g id="XMLID_1347_">
		<path id="XMLID_1352_" class="st1" d="M407.24,99.86c5.25,0,5.87,0.02,7.95,0.11c1.92,0.09,2.96,0.41,3.65,0.68
			c0.92,0.36,1.57,0.78,2.26,1.47c0.69,0.69,1.11,1.34,1.47,2.26c0.27,0.69,0.59,1.73,0.68,3.65c0.09,2.07,0.11,2.7,0.11,7.95
			c0,5.25-0.02,5.87-0.11,7.95c-0.09,1.92-0.41,2.96-0.68,3.65c-0.36,0.92-0.78,1.57-1.47,2.26c-0.69,0.69-1.34,1.11-2.26,1.47
			c-0.69,0.27-1.73,0.59-3.65,0.68c-2.07,0.09-2.69,0.11-7.95,0.11c-5.25,0-5.87-0.02-7.95-0.11c-1.92-0.09-2.96-0.41-3.65-0.68
			c-0.92-0.36-1.57-0.78-2.26-1.47c-0.69-0.69-1.11-1.34-1.47-2.26c-0.27-0.69-0.59-1.73-0.68-3.65c-0.09-2.07-0.11-2.7-0.11-7.95
			c0-5.25,0.02-5.87,0.11-7.95c0.09-1.92,0.41-2.96,0.68-3.65c0.36-0.92,0.78-1.57,1.47-2.26c0.69-0.69,1.34-1.11,2.26-1.47
			c0.69-0.27,1.73-0.59,3.65-0.68C401.37,99.88,401.99,99.86,407.24,99.86 M407.24,96.31c-5.34,0-6.01,0.02-8.11,0.12
			c-2.09,0.1-3.52,0.43-4.77,0.91c-1.29,0.5-2.39,1.17-3.48,2.27c-1.09,1.09-1.77,2.19-2.27,3.48c-0.49,1.25-0.82,2.68-0.91,4.77
			c-0.1,2.1-0.12,2.77-0.12,8.11s0.02,6.01,0.12,8.11c0.1,2.09,0.43,3.52,0.91,4.77c0.5,1.29,1.17,2.39,2.27,3.48
			c1.09,1.09,2.19,1.77,3.48,2.27c1.25,0.49,2.68,0.82,4.77,0.91c2.1,0.1,2.77,0.12,8.11,0.12c5.34,0,6.01-0.02,8.11-0.12
			c2.09-0.1,3.52-0.43,4.77-0.91c1.29-0.5,2.39-1.17,3.48-2.27c1.09-1.09,1.77-2.19,2.27-3.48c0.49-1.25,0.82-2.68,0.91-4.77
			c0.1-2.1,0.12-2.77,0.12-8.11s-0.02-6.01-0.12-8.11c-0.1-2.09-0.43-3.52-0.91-4.77c-0.5-1.29-1.17-2.39-2.27-3.48
			c-1.09-1.09-2.19-1.77-3.48-2.27c-1.25-0.49-2.68-0.82-4.77-0.91C413.25,96.34,412.58,96.31,407.24,96.31"/>
		<path id="XMLID_1349_" class="st1" d="M407.24,105.88c-5.58,0-10.1,4.52-10.1,10.1c0,5.58,4.52,10.1,10.1,10.1
			c5.58,0,10.1-4.52,10.1-10.1C417.34,110.4,412.82,105.88,407.24,105.88 M407.24,122.53c-3.62,0-6.55-2.93-6.55-6.55
			c0-3.62,2.93-6.55,6.55-6.55c3.62,0,6.55,2.93,6.55,6.55C413.8,119.6,410.86,122.53,407.24,122.53"/>
		<path id="XMLID_1348_" class="st1" d="M420.1,105.48c0,1.3-1.06,2.36-2.36,2.36c-1.3,0-2.36-1.06-2.36-2.36
			c0-1.3,1.06-2.36,2.36-2.36C419.04,103.12,420.1,104.18,420.1,105.48"/>
	</g>
</g>
<g id="XMLID_1341_">
	<path id="XMLID_1343_" class="st12" d="M407.24,253.46L407.24,253.46c-19.81,0-35.86-16.06-35.86-35.86l0,0
		c0-19.81,16.06-35.86,35.86-35.86h0c19.81,0,35.86,16.06,35.86,35.86l0,0C443.1,237.41,427.05,253.46,407.24,253.46z"/>
	<path id="XMLID_1342_" class="st1" d="M395.76,220.93c0.56,0.23,1.06,0.01,1.23-0.61c0.11-0.43,0.38-1.51,0.5-1.96
		c0.17-0.61,0.1-0.83-0.35-1.36c-0.98-1.16-1.61-2.67-1.61-4.8c0-6.18,4.63-11.72,12.05-11.72c6.57,0,10.18,4.01,10.18,9.38
		c0,7.05-3.12,13.01-7.76,13.01c-2.56,0-4.47-2.12-3.86-4.71c0.74-3.1,2.16-6.44,2.16-8.68c0-2-1.07-3.67-3.3-3.67
		c-2.62,0-4.72,2.71-4.72,6.33c0,2.31,0.78,3.87,0.78,3.87s-2.68,11.35-3.15,13.33c-0.94,3.96-0.14,8.81-0.07,9.3
		c0.04,0.29,0.41,0.36,0.58,0.14c0.24-0.32,3.36-4.16,4.42-8.01c0.3-1.09,1.72-6.72,1.72-6.72c0.85,1.62,3.33,3.05,5.98,3.05
		c7.87,0,13.2-7.17,13.2-16.77c0-7.26-6.15-14.02-15.49-14.02c-11.62,0-17.49,8.33-17.49,15.28
		C390.75,215.8,392.35,219.54,395.76,220.93z"/>
</g>
<g id="XMLID_622_">
	<path id="XMLID_633_" class="st13" d="M302.21,253.46L302.21,253.46c-19.81,0-35.86-16.06-35.86-35.86l0,0
		c0-19.81,16.06-35.86,35.86-35.86l0,0c19.81,0,35.86,16.06,35.86,35.86l0,0C338.07,237.41,322.02,253.46,302.21,253.46z"/>
	<g id="XMLID_623_">
		<path id="XMLID_629_" class="st1" d="M296.85,229.5c1.09-0.23,2.04-0.65,2.84-1.26c0.71-0.53,1.3-1.19,1.78-1.97
			c0.74-1.18,1.12-2.52,1.12-4.01c0-1.44-0.33-2.67-0.98-3.68c-0.65-1.01-1.62-1.75-2.9-2.22c0.84-0.43,1.48-0.91,1.92-1.43
			c0.77-0.93,1.16-2.16,1.16-3.7c0-1.49-0.39-2.77-1.15-3.83c-1.28-1.74-3.45-2.63-6.51-2.67h-12.14v25.11h11.32
			C294.58,229.84,295.77,229.73,296.85,229.5z M287,209.09h5.46c1.2,0,2.19,0.13,2.97,0.39c0.9,0.37,1.35,1.15,1.35,2.32
			c0,1.06-0.34,1.79-1.02,2.21c-0.68,0.41-1.56,0.62-2.66,0.62H287V209.09z M287,225.48v-6.69h6.18c1.08,0.01,1.91,0.15,2.51,0.43
			c1.07,0.49,1.6,1.38,1.6,2.69c0,1.54-0.55,2.59-1.65,3.14c-0.61,0.3-1.45,0.44-2.54,0.44H287z"/>
		<g id="XMLID_624_">
			<path id="XMLID_626_" class="st1" d="M306.84,228.19c1.89,1.52,4.07,2.29,6.54,2.29c3,0,5.32-0.9,6.99-2.71
				c1.07-1.14,1.67-2.26,1.8-3.36h-4.96c-0.29,0.54-0.62,0.97-1,1.28c-0.69,0.57-1.59,0.85-2.7,0.85c-1.04,0-1.93-0.23-2.68-0.7
				c-1.22-0.75-1.87-2.06-1.94-3.92h13.52c0.02-1.6-0.03-2.83-0.16-3.68c-0.23-1.46-0.72-2.74-1.48-3.84
				c-0.84-1.25-1.91-2.17-3.21-2.75c-1.29-0.58-2.75-0.87-4.37-0.87c-2.72,0-4.93,0.86-6.64,2.57c-1.71,1.71-2.56,4.18-2.56,7.4
				C304.01,224.18,304.95,226.66,306.84,228.19z M310.31,215.84c0.69-0.71,1.65-1.06,2.9-1.06c1.15,0,2.11,0.33,2.88,1
				c0.77,0.67,1.21,1.65,1.29,2.93h-8.37C309.19,217.51,309.62,216.55,310.31,215.84z"/>
			<rect id="XMLID_625_" x="307.43" y="206.17" class="st1" width="10.91" height="2.53"/>
		</g>
	</g>
</g>
<g id="XMLID_1283_">
	<path id="XMLID_1285_" class="st14" d="M407.87,355.09L407.87,355.09c-19.81,0-35.86-16.06-35.86-35.86v0
		c0-19.81,16.06-35.86,35.86-35.86h0c19.81,0,35.86,16.06,35.86,35.86v0C443.73,339.03,427.67,355.09,407.87,355.09z"/>
	<path id="XMLID_1284_" class="st1" d="M399.82,329.83c0,1.86,0.19,3.27,0.58,4.25c0.39,0.98,1.09,1.9,2.1,2.77
		c1.01,0.87,2.22,1.54,3.65,2c1.43,0.47,3.07,0.7,4.93,0.7c1.64,0,3.16-0.17,4.57-0.49c1.41-0.33,2.98-0.9,4.72-1.72v-6.4
		c-2.04,1.34-4.09,2.01-6.15,2.01c-1.16,0-2.19-0.27-3.09-0.81c-0.68-0.4-1.14-0.93-1.39-1.6c-0.25-0.67-0.37-2.18-0.37-4.54v-10.43
		h9.66v-6.38h-9.66v-10.3h-5.76c-0.26,2.1-0.73,3.82-1.42,5.18c-0.69,1.36-1.6,2.52-2.73,3.49c-1.14,0.97-2.5,1.71-4.09,2.23v5.79
		h4.45V329.83z"/>
</g>
<g id="XMLID_1182_">
	<path id="XMLID_1184_" class="st15" d="M92.13,355.09L92.13,355.09c-19.81,0-35.86-16.06-35.86-35.86v0
		c0-19.81,16.06-35.86,35.86-35.86h0c19.81,0,35.86,16.06,35.86,35.86v0C128,339.03,111.94,355.09,92.13,355.09z"/>
	<path id="XMLID_1183_" class="st16" d="M112.91,329.63L112.91,329.63c-0.01-0.02-0.02-0.02-0.04-0.04c0,0,0,0-0.01,0l0,0
		c-0.51-0.32-1.02-0.37-1.35-0.49c-0.01,0-0.02,0-0.02-0.01c-2.2-0.69-4.1-2.19-5.53-4.02c-0.79-1.02-1.45-2.12-1.89-3.3
		c0-0.01,0-0.01,0-0.02c-0.18-0.51-0.19-1.07,0.07-1.41c0,0,0.01,0,0.01-0.01c0.4-0.57,1.13-0.93,1.9-1.21c0.01,0,0.01,0,0.01,0
		c0.87-0.3,1.8-0.64,2.57-1.33c0.01,0,0.01-0.01,0.02-0.01c0.12-0.11,0.26-0.25,0.37-0.48c0.02-0.05,0.05-0.11,0.06-0.18
		c0.06-0.2,0.06-0.46-0.05-0.67c0-0.01,0-0.01,0-0.01c-0.22-0.45-0.6-0.69-0.9-0.86h-0.01c-0.48-0.28-1.04-0.3-1.54-0.14l0,0h-0.01
		c-0.53,0.16-0.96,0.35-1.36,0.4c-0.01,0-0.02,0-0.03,0.01c-0.57,0.1-1.12,0.12-1.55-0.04c-0.01-0.06-0.01-0.19-0.03-0.34h0.01
		c-0.04-0.94,0.05-1.9,0.06-2.9c0,0,0,0,0-0.01c0.05-1.52,0.11-3.08-0.12-4.66c0-0.01,0-0.02,0-0.02c-0.5-2.66-2.2-4.95-4.37-6.47
		c-1.57-1.11-3.44-1.72-5.34-1.9l0,0c-0.65-0.06-1.29-0.08-1.92-0.08c-2.56,0.02-5.22,0.69-7.3,2.32c-1.56,1.22-2.79,2.84-3.56,4.64
		v0.01c-0.74,1.85-0.67,3.83-0.57,5.66l0,0c0.06,1.29,0.2,2.53,0.09,3.72c-0.01,0.04-0.01,0.06-0.02,0.08
		c-0.58,0.11-1.21,0.07-1.83-0.05h-0.01c-0.43-0.07-0.89-0.24-1.4-0.39c-0.01,0-0.02,0-0.03-0.01c-0.5-0.11-0.99,0.03-1.36,0.31
		c-0.01,0-0.02,0-0.02,0.01c-0.01,0.01-0.02,0.01-0.02,0.02c-0.31,0.19-0.73,0.54-0.75,1.12c-0.01,0.04,0,0.07,0,0.11
		c0.01,0,0,0.01,0.01,0.01c0.06,0.34,0.27,0.59,0.47,0.76c0.19,0.17,0.37,0.27,0.48,0.36c0.01,0,0.02,0.01,0.03,0.02
		c0.94,0.62,1.97,0.9,2.87,1.25l0,0c0.62,0.27,1.16,0.69,1.29,1.23c0.16,0.67-0.14,1.45-0.51,2.2v0.01c-1.01,1.99-2.51,3.72-4.37,5
		c-0.97,0.66-2.07,1.16-3.21,1.46c-0.01,0-0.03,0.01-0.05,0.02c-0.23,0.09-0.79,0.14-1.14,0.66c-0.02,0.04-0.04,0.08-0.06,0.13
		c-0.12,0.33,0.02,0.69,0.19,0.9c0.16,0.19,0.33,0.3,0.49,0.38c0.01,0,0.02,0.01,0.03,0.01c0.95,0.55,2.01,0.79,2.96,1.03
		c0.01,0,0.01,0.01,0.01,0.01c0.69,0.15,1.33,0.23,1.85,0.46c0.02,0.04,0.08,0.21,0.19,0.51c0.18,0.53,0.25,1.14,0.45,1.79
		c0.06,0.18,0.21,0.32,0.4,0.36c0.44,0.1,0.67-0.05,0.71-0.06c0.02,0,0.04,0,0.06,0c1.6-0.28,3.21-0.53,4.68-0.17l0,0
		c1.54,0.41,2.88,1.47,4.4,2.38v0.01l0,0c1,0.62,2.16,1.24,3.51,1.29l0,0c0,0,0,0,0.01,0c1.01,0.06,2-0.01,2.97-0.07
		c0.01,0,0.01,0,0.02,0c0.83-0.08,1.63-0.36,2.34-0.8c0.01-0.01,0.02-0.02,0.03-0.02c1.59-0.91,2.99-1.99,4.54-2.67h0.01
		c0.5-0.18,1.13-0.17,1.82-0.21c0.01,0,0.02,0,0.02,0c1.29-0.04,2.56,0.03,3.84,0.19c0.04,0.01,0.09,0.01,0.13,0
		c0.18-0.02,0.35-0.14,0.44-0.24c0.1-0.11,0.12-0.2,0.14-0.27c0.04-0.13,0.07-0.19,0.01-0.08c0.02-0.04,0.04-0.07,0.05-0.11
		c0.23-0.77,0.36-1.46,0.74-1.89c0.17-0.17,0.46-0.24,0.79-0.24c0.02,0,0.05,0,0.07,0c1.11-0.13,2.1-0.53,3.05-0.86
		c0.01-0.01,0.03-0.01,0.04-0.01c0.35-0.16,0.88-0.33,1.24-0.83c0,0,0,0,0-0.01l0,0C113.48,330.45,113.33,329.88,112.91,329.63
		L112.91,329.63z"/>
</g>
<g id="XMLID_1122_">
	<path id="XMLID_1124_" class="st17" d="M92.13,456.71L92.13,456.71c-19.81,0-35.86-16.06-35.86-35.86v0
		c0-19.81,16.06-35.86,35.86-35.86h0c19.81,0,35.86,16.06,35.86,35.86v0C128,440.65,111.94,456.71,92.13,456.71z"/>
	<path id="XMLID_1123_" class="st1" d="M106.54,403.25c-5.64-0.18-9.46,3-11.46,9.55c1.03-0.44,2.04-0.67,3.01-0.67
		c2.07,0,2.98,1.17,2.74,3.49c-0.12,1.4-1.03,3.45-2.74,6.14c-1.71,2.69-2.98,4.04-3.84,4.04c-1.1,0-2.1-2.07-3.01-6.22
		c-0.31-1.22-0.85-4.33-1.65-9.33c-0.73-4.63-2.68-6.8-5.85-6.49c-1.34,0.12-3.35,1.34-6.03,3.65c-1.95,1.77-3.93,3.53-5.94,5.3
		l1.91,2.47c1.82-1.28,2.89-1.92,3.19-1.92c1.4,0,2.7,2.19,3.92,6.57c1.09,4.01,2.19,8.03,3.28,12.04c1.64,4.38,3.64,6.57,6.02,6.57
		c3.83,0,8.51-3.59,14.04-10.79c5.35-6.89,8.11-12.31,8.3-16.27C112.69,406.09,110.72,403.38,106.54,403.25z"/>
</g>
<g id="XMLID_1110_">
	<path id="XMLID_1119_" class="st18" d="M407.87,456.71L407.87,456.71c-19.81,0-35.86-16.06-35.86-35.86v0
		c0-19.81,16.06-35.86,35.86-35.86h0c19.81,0,35.86,16.06,35.86,35.86v0C443.73,440.65,427.67,456.71,407.87,456.71z"/>
	<path id="XMLID_1111_" class="st1" d="M407.87,397.98c-12.63,0-22.86,10.24-22.86,22.86c0,12.63,10.24,22.86,22.86,22.86
		c12.63,0,22.86-10.24,22.86-22.86C430.73,408.22,420.49,397.98,407.87,397.98z M407.87,401.96c4.34,0,8.32,1.48,11.51,3.95
		c-2.29,2.96-5.46,5.3-9.5,7.01c-1.94-3.55-4.15-7-6.64-10.36C404.72,402.18,406.27,401.96,407.87,401.96z M399.35,404.01
		c2.54,3.32,4.78,6.74,6.74,10.25c-4.63,1.36-10.16,2.06-16.55,2.11C390.86,410.97,394.5,406.48,399.35,404.01z M388.98,420.85
		c0-0.16,0.02-0.32,0.03-0.49c7.33-0.01,13.66-0.85,18.95-2.52c0.44,0.9,0.87,1.81,1.28,2.73c-6.44,2.01-11.74,6.14-15.88,12.34
		C390.63,429.64,388.98,425.43,388.98,420.85z M407.87,439.73c-4.37,0-8.39-1.5-11.59-4.01c3.75-5.89,8.54-9.72,14.47-11.48
		c1.77,4.61,3.07,9.35,3.89,14.21C412.54,439.27,410.26,439.73,407.87,439.73z M418.35,436.54c-0.83-4.48-2.06-8.86-3.66-13.14
		c3.57-0.5,7.51-0.37,11.81,0.37C425.67,429.09,422.64,433.67,418.35,436.54z M413.17,419.64c-0.46-1.07-0.95-2.14-1.46-3.2
		c4.4-1.91,7.94-4.49,10.57-7.78c2.57,3.04,4.18,6.89,4.42,11.12C421.79,418.98,417.28,418.93,413.17,419.64z"/>
</g>
<g id="XMLID_1355_">
	<path id="XMLID_1416_" d="M66.7,48.44v-0.7h2.82v0.7H66.7z"/>
	<path id="XMLID_1414_" d="M89.6,44.07l-0.41,0.9c-0.75-0.5-1.64-0.71-2.31-0.71c-1.08,0-1.79,0.41-1.79,1.12
		c0,2.16,4.73,1.03,4.71,4.08c0,1.4-1.24,2.3-3.03,2.3c-1.22,0-2.42-0.53-3.21-1.28l0.43-0.86c0.78,0.76,1.85,1.19,2.79,1.19
		c1.21,0,1.97-0.49,1.97-1.3c0.01-2.21-4.71-1.03-4.71-4.04c0-1.32,1.16-2.17,2.9-2.17C87.91,43.29,88.9,43.6,89.6,44.07z"/>
	<path id="XMLID_1411_" d="M104.57,47.52c0,2.36-1.94,4.25-4.39,4.25c-2.46,0-4.4-1.88-4.4-4.25c0-2.37,1.94-4.22,4.4-4.22
		C102.63,43.3,104.57,45.16,104.57,47.52z M96.75,47.52c0,1.85,1.56,3.32,3.43,3.32c1.87,0,3.41-1.48,3.41-3.32
		c0-1.85-1.54-3.31-3.41-3.31C98.31,44.21,96.75,45.68,96.75,47.52z"/>
	<path id="XMLID_1409_" d="M117.58,44.53l-0.58,0.73c-0.65-0.66-1.56-1.06-2.48-1.06c-1.89,0-3.42,1.46-3.42,3.31
		c0,1.84,1.52,3.31,3.42,3.31c0.92,0,1.82-0.38,2.48-1.01l0.59,0.66c-0.83,0.78-1.96,1.3-3.12,1.3c-2.42,0-4.34-1.88-4.34-4.26
		c0-2.35,1.94-4.21,4.38-4.21C115.66,43.3,116.78,43.77,117.58,44.53z"/>
	<path id="XMLID_1407_" d="M124.13,51.72v-8.4h0.96v8.4H124.13z"/>
	<path id="XMLID_1404_" d="M133.16,49.6l-0.94,2.12h-1.02l3.77-8.4h1l3.75,8.4h-1.04l-0.94-2.12H133.16z M135.44,44.42l-1.87,4.26
		h3.77L135.44,44.42z"/>
	<path id="XMLID_1402_" d="M150.49,50.81v0.91h-4.64v-8.4h0.96v7.48H150.49z"/>
	<path id="XMLID_1400_" d="M172.54,51.72l-0.01-6.92l-3.06,6.03h-0.58l-3.05-6.03v6.92h-0.91v-8.4h1.19l3.07,6.04l3.06-6.04h1.18
		v8.4H172.54z"/>
	<path id="XMLID_1398_" d="M181.75,44.25v2.76h4.23v0.92h-4.23v2.88h4.89v0.91h-5.85v-8.4h5.7v0.92H181.75z"/>
	<path id="XMLID_1395_" d="M196.8,43.33c2.45,0,4.32,1.81,4.32,4.2c0,2.39-1.88,4.2-4.35,4.2h-3.36v-8.4H196.8z M194.36,50.81h2.45
		c1.87,0,3.33-1.4,3.33-3.27c0-1.88-1.49-3.29-3.37-3.29h-2.41V50.81z"/>
	<path id="XMLID_1393_" d="M207.67,51.72v-8.4h0.96v8.4H207.67z"/>
	<path id="XMLID_1390_" d="M216.71,49.6l-0.94,2.12h-1.02l3.77-8.4h1l3.75,8.4h-1.04l-0.94-2.12H216.71z M218.98,44.42l-1.87,4.26
		h3.77L218.98,44.42z"/>
	<path id="XMLID_1388_" d="M242.12,50.81v0.91h-4.64v-8.4h0.96v7.48H242.12z"/>
	<path id="XMLID_1385_" d="M256.48,47.52c0,2.36-1.94,4.25-4.39,4.25c-2.46,0-4.4-1.88-4.4-4.25c0-2.37,1.94-4.22,4.4-4.22
		C254.54,43.3,256.48,45.16,256.48,47.52z M248.66,47.52c0,1.85,1.56,3.32,3.43,3.32c1.87,0,3.41-1.48,3.41-3.32
		c0-1.85-1.54-3.31-3.41-3.31C250.22,44.21,248.66,45.68,248.66,47.52z"/>
	<path id="XMLID_1383_" d="M269.54,47.62v3.05c-0.83,0.66-1.99,1.1-3.12,1.1c-2.43,0-4.38-1.88-4.38-4.25
		c0-2.36,1.95-4.22,4.42-4.22c1.16,0,2.29,0.44,3.09,1.15l-0.55,0.72c-0.68-0.61-1.61-0.97-2.54-0.97c-1.92,0-3.45,1.48-3.45,3.32
		c0,1.86,1.55,3.33,3.47,3.33c0.75,0,1.56-0.26,2.21-0.71v-2.53H269.54z"/>
	<path id="XMLID_1380_" d="M284.67,47.52c0,2.36-1.94,4.25-4.39,4.25c-2.46,0-4.4-1.88-4.4-4.25c0-2.37,1.94-4.22,4.4-4.22
		C282.73,43.3,284.67,45.16,284.67,47.52z M276.85,47.52c0,1.85,1.56,3.32,3.43,3.32c1.87,0,3.41-1.48,3.41-3.32
		c0-1.85-1.54-3.31-3.41-3.31C278.41,44.21,276.85,45.68,276.85,47.52z"/>
	<path id="XMLID_1378_" d="M305.97,44.53l-0.58,0.73c-0.65-0.66-1.56-1.06-2.48-1.06c-1.89,0-3.42,1.46-3.42,3.31
		c0,1.84,1.52,3.31,3.42,3.31c0.92,0,1.82-0.38,2.48-1.01l0.59,0.66c-0.83,0.78-1.95,1.3-3.12,1.3c-2.42,0-4.34-1.88-4.34-4.26
		c0-2.35,1.94-4.21,4.38-4.21C304.05,43.3,305.17,43.77,305.97,44.53z"/>
	<path id="XMLID_1375_" d="M320.31,47.52c0,2.36-1.94,4.25-4.39,4.25c-2.46,0-4.4-1.88-4.4-4.25c0-2.37,1.94-4.22,4.4-4.22
		C318.37,43.3,320.31,45.16,320.31,47.52z M312.49,47.52c0,1.85,1.56,3.32,3.43,3.32s3.41-1.48,3.41-3.32
		c0-1.85-1.54-3.31-3.41-3.31S312.49,45.68,312.49,47.52z"/>
	<path id="XMLID_1373_" d="M331.51,50.81v0.91h-4.64v-8.4h0.96v7.48H331.51z"/>
	<path id="XMLID_1371_" d="M342.51,50.81v0.91h-4.64v-8.4h0.96v7.48H342.51z"/>
	<path id="XMLID_1369_" d="M349.83,44.25v2.76h4.23v0.92h-4.23v2.88h4.89v0.91h-5.85v-8.4h5.7v0.92H349.83z"/>
	<path id="XMLID_1367_" d="M368.14,44.53l-0.58,0.73c-0.65-0.66-1.56-1.06-2.48-1.06c-1.89,0-3.42,1.46-3.42,3.31
		c0,1.84,1.52,3.31,3.42,3.31c0.92,0,1.82-0.38,2.48-1.01l0.59,0.66c-0.83,0.78-1.96,1.3-3.12,1.3c-2.42,0-4.34-1.88-4.34-4.26
		c0-2.35,1.94-4.21,4.38-4.21C366.22,43.3,367.34,43.77,368.14,44.53z"/>
	<path id="XMLID_1365_" d="M377.24,44.25v7.47h-0.96v-7.47h-2.73v-0.92h6.44v0.92H377.24z"/>
	<path id="XMLID_1363_" d="M386.18,51.72v-8.4h0.96v8.4H386.18z"/>
	<path id="XMLID_1360_" d="M402.48,47.52c0,2.36-1.94,4.25-4.39,4.25c-2.46,0-4.4-1.88-4.4-4.25c0-2.37,1.94-4.22,4.4-4.22
		C400.54,43.3,402.48,45.16,402.48,47.52z M394.66,47.52c0,1.85,1.56,3.32,3.43,3.32c1.87,0,3.41-1.48,3.41-3.32
		c0-1.85-1.54-3.31-3.41-3.31C396.22,44.21,394.66,45.68,394.66,47.52z"/>
	<path id="XMLID_1358_" d="M415.04,51.72L410,44.98v6.74h-0.96v-8.4h1l5.04,6.75v-6.75h0.95v8.4H415.04z"/>
	<path id="XMLID_1356_" d="M430.96,48.44v-0.7h2.82v0.7H430.96z"/>
</g>
</svg>
